<svg data-v-423bf9ae="" xmlns="http://www.w3.org/2000/svg" viewBox="0 0 219.8684431301744 60" class="font"><!----><!----><defs data-v-423bf9ae=""><linearGradient data-v-423bf9ae="" gradientTransform="rotate(25)" id="ac39cf60-0f4e-40d2-b126-d1f1d524a8db" x1="0%" y1="0%" x2="100%" y2="0%"><stop data-v-423bf9ae="" offset="0%" style="stop-color: rgb(142, 66, 211); stop-opacity: 1;"></stop><stop data-v-423bf9ae="" offset="100%" style="stop-color: rgb(212, 105, 117); stop-opacity: 1;"></stop></linearGradient></defs><g data-v-423bf9ae="" id="24a32a7b-9910-497e-a8d6-b31e700ec699" fill="url(#ac39cf60-0f4e-40d2-b126-d1f1d524a8db)" transform="matrix(5.639098067841383,0,0,5.639098067841383,-1.4097709996500782,-14.60526485616726)"><path d="M4.86 13.23L4.86 13.23Q3.37 13.23 2.35 12.82L2.35 12.82L2.35 12.82Q1.32 12.42 0.80 11.74L0.80 11.74L0.80 11.74Q0.28 11.06 0.25 10.25L0.25 10.25L0.25 10.25Q0.25 10.12 0.34 10.03L0.34 10.03L0.34 10.03Q0.43 9.94 0.56 9.94L0.56 9.94L3.22 9.94L3.22 9.94Q3.42 9.94 3.54 9.99L3.54 9.99L3.54 9.99Q3.65 10.04 3.82 10.18L3.82 10.18L3.82 10.18Q4.23 10.50 4.86 10.50L4.86 10.50L4.86 10.50Q5.33 10.50 5.62 10.39L5.62 10.39L5.62 10.39Q5.91 10.29 5.91 10.11L5.91 10.11L5.91 10.11Q5.91 9.86 5.53 9.72L5.53 9.72L5.53 9.72Q5.15 9.59 4.10 9.45L4.10 9.45L4.10 9.45Q0.49 8.97 0.49 6.37L0.49 6.37L0.49 6.37Q0.49 5.43 1.03 4.70L1.03 4.70L1.03 4.70Q1.57 3.96 2.53 3.56L2.53 3.56L2.53 3.56Q3.50 3.15 4.76 3.15L4.76 3.15L4.76 3.15Q6.08 3.15 7.07 3.60L7.07 3.60L7.07 3.60Q8.06 4.05 8.60 4.72L8.60 4.72L8.60 4.72Q9.13 5.40 9.16 6.05L9.16 6.05L9.16 6.05Q9.16 6.17 9.06 6.26L9.06 6.26L9.06 6.26Q8.97 6.36 8.86 6.36L8.86 6.36L6.06 6.36L6.06 6.36Q5.87 6.36 5.75 6.31L5.75 6.31L5.75 6.31Q5.64 6.26 5.50 6.13L5.50 6.13L5.50 6.13Q5.21 5.88 4.76 5.88L4.76 5.88L4.76 5.88Q4.09 5.88 4.09 6.27L4.09 6.27L4.09 6.27Q4.09 6.48 4.42 6.62L4.42 6.62L4.42 6.62Q4.75 6.76 5.64 6.87L5.64 6.87L5.64 6.87Q7.04 7.06 7.89 7.42L7.89 7.42L7.89 7.42Q8.74 7.78 9.12 8.39L9.12 8.39L9.12 8.39Q9.51 9.00 9.51 9.93L9.51 9.93L9.51 9.93Q9.51 10.92 8.90 11.67L8.90 11.67L8.90 11.67Q8.30 12.42 7.25 12.82L7.25 12.82L7.25 12.82Q6.19 13.23 4.86 13.23L4.86 13.23ZM12.71 13.23L12.71 13.23Q11.93 13.23 11.31 12.94L11.31 12.94L11.31 12.94Q10.68 12.64 10.34 12.14L10.34 12.14L10.34 12.14Q10.00 11.63 10.00 11.00L10.00 11.00L10.00 11.00Q10.00 9.11 13.06 8.58L13.06 8.58L14.55 8.34L14.55 8.33L14.55 8.33Q14.55 7.92 14.48 7.78L14.48 7.78L14.48 7.78Q14.41 7.63 14.13 7.63L14.13 7.63L14.13 7.63Q13.97 7.63 13.86 7.69L13.86 7.69L13.86 7.69Q13.75 7.74 13.62 7.85L13.62 7.85L13.62 7.85Q13.50 7.97 13.41 8.02L13.41 8.02L13.41 8.02Q13.31 8.08 13.16 8.08L13.16 8.08L13.12 8.08L10.78 8.08L10.78 8.08Q10.65 8.08 10.56 8.00L10.56 8.00L10.56 8.00Q10.47 7.92 10.47 7.80L10.47 7.80L10.47 7.80Q10.47 7.39 10.87 6.89L10.87 6.89L10.87 6.89Q11.27 6.38 12.10 6.03L12.10 6.03L12.10 6.03Q12.94 5.67 14.15 5.67L14.15 5.67L14.15 5.67Q16.03 5.67 16.97 6.45L16.97 6.45L16.97 6.45Q17.91 7.24 17.91 8.69L17.91 8.69L17.91 12.71L17.91 12.71Q17.91 12.87 17.79 12.98L17.79 12.98L17.79 12.98Q17.68 13.09 17.53 13.09L17.53 13.09L15.08 13.09L15.08 13.09Q14.92 13.09 14.81 12.98L14.81 12.98L14.81 12.98Q14.70 12.87 14.70 12.71L14.70 12.71L14.70 12.32L14.70 12.32Q14.39 12.74 13.87 12.98L13.87 12.98L13.87 12.98Q13.36 13.23 12.71 13.23L12.71 13.23ZM13.68 11.16L13.68 11.16Q14.10 11.16 14.34 10.89L14.34 10.89L14.34 10.89Q14.59 10.63 14.59 10.08L14.59 10.08L14.59 10.07L13.76 10.25L13.76 10.25Q13.15 10.39 13.15 10.77L13.15 10.77L13.15 10.77Q13.15 10.93 13.29 11.05L13.29 11.05L13.29 11.05Q13.43 11.16 13.68 11.16L13.68 11.16ZM21.74 13.23L21.74 13.23Q21 13.23 20.38 12.89L20.38 12.89L20.38 12.89Q19.77 12.54 19.40 11.83L19.40 11.83L19.40 11.83Q19.03 11.12 19.03 10.05L19.03 10.05L19.03 6.19L19.03 6.19Q19.03 6.03 19.14 5.92L19.14 5.92L19.14 5.92Q19.25 5.81 19.40 5.81L19.40 5.81L22.08 5.81L22.08 5.81Q22.23 5.81 22.34 5.92L22.34 5.92L22.34 5.92Q22.46 6.03 22.46 6.19L22.46 6.19L22.46 9.95L22.46 9.95Q22.46 10.33 22.64 10.53L22.64 10.53L22.64 10.53Q22.82 10.72 23.16 10.72L23.16 10.72L23.16 10.72Q23.49 10.72 23.67 10.53L23.67 10.53L23.67 10.53Q23.86 10.33 23.86 9.95L23.86 9.95L23.86 6.19L23.86 6.19Q23.86 6.03 23.97 5.92L23.97 5.92L23.97 5.92Q24.08 5.81 24.23 5.81L24.23 5.81L26.89 5.81L26.89 5.81Q27.05 5.81 27.16 5.92L27.16 5.92L27.16 5.92Q27.27 6.03 27.27 6.19L27.27 6.19L27.27 12.71L27.27 12.71Q27.27 12.87 27.16 12.98L27.16 12.98L27.16 12.98Q27.05 13.09 26.89 13.09L26.89 13.09L24.44 13.09L24.44 13.09Q24.29 13.09 24.18 12.98L24.18 12.98L24.18 12.98Q24.07 12.87 24.07 12.71L24.07 12.71L24.07 12.25L24.07 12.25Q23.73 12.74 23.13 12.98L23.13 12.98L23.13 12.98Q22.53 13.23 21.74 13.23L21.74 13.23ZM33.04 13.09L33.04 13.09Q31.39 13.09 30.46 12.40L30.46 12.40L30.46 12.40Q29.54 11.70 29.54 10.08L29.54 10.08L29.54 8.26L28.43 8.26L28.43 8.26Q28.28 8.26 28.17 8.15L28.17 8.15L28.17 8.15Q28.06 8.04 28.06 7.88L28.06 7.88L28.06 6.19L28.06 6.19Q28.06 6.03 28.17 5.92L28.17 5.92L28.17 5.92Q28.28 5.81 28.43 5.81L28.43 5.81L29.54 5.81L29.54 3.53L29.54 3.53Q29.54 3.37 29.65 3.26L29.65 3.26L29.65 3.26Q29.76 3.15 29.92 3.15L29.92 3.15L32.37 3.15L32.37 3.15Q32.52 3.15 32.63 3.26L32.63 3.26L32.63 3.26Q32.75 3.37 32.75 3.53L32.75 3.53L32.75 5.81L34.51 5.81L34.51 5.81Q34.66 5.81 34.78 5.92L34.78 5.92L34.78 5.92Q34.89 6.03 34.89 6.19L34.89 6.19L34.89 7.88L34.89 7.88Q34.89 8.04 34.78 8.15L34.78 8.15L34.78 8.15Q34.66 8.26 34.51 8.26L34.51 8.26L32.75 8.26L32.75 9.80L32.75 9.80Q32.75 10.50 33.35 10.50L33.35 10.50L34.62 10.50L34.62 10.50Q34.78 10.50 34.89 10.61L34.89 10.61L34.89 10.61Q35 10.72 35 10.88L35 10.88L35 12.71L35 12.71Q35 12.87 34.89 12.98L34.89 12.98L34.89 12.98Q34.78 13.09 34.62 13.09L34.62 13.09L33.04 13.09ZM36.43 5.04L36.43 5.04Q36.27 5.04 36.16 4.93L36.16 4.93L36.16 4.93Q36.05 4.82 36.05 4.66L36.05 4.66L36.05 2.97L36.05 2.97Q36.05 2.81 36.16 2.70L36.16 2.70L36.16 2.70Q36.27 2.59 36.43 2.59L36.43 2.59L38.79 2.59L38.79 2.59Q38.95 2.59 39.06 2.70L39.06 2.70L39.06 2.70Q39.17 2.81 39.17 2.97L39.17 2.97L39.17 4.66L39.17 4.66Q39.17 4.82 39.06 4.93L39.06 4.93L39.06 4.93Q38.95 5.04 38.79 5.04L38.79 5.04L36.43 5.04ZM36.36 13.09L36.36 13.09Q36.20 13.09 36.09 12.98L36.09 12.98L36.09 12.98Q35.98 12.87 35.98 12.71L35.98 12.71L35.98 6.19L35.98 6.19Q35.98 6.03 36.09 5.92L36.09 5.92L36.09 5.92Q36.20 5.81 36.36 5.81L36.36 5.81L38.86 5.81L38.86 5.81Q39.02 5.81 39.13 5.92L39.13 5.92L39.13 5.92Q39.24 6.03 39.24 6.19L39.24 6.19L39.24 12.71L39.24 12.71Q39.24 12.87 39.13 12.98L39.13 12.98L39.13 12.98Q39.02 13.09 38.86 13.09L38.86 13.09L36.36 13.09Z"></path></g><!----><!----></svg>